<svg width="51" height="32" viewBox="0 0 51 32" fill="none" xmlns="http://www.w3.org/2000/svg">
<path fill-rule="evenodd" clip-rule="evenodd" d="M27.9783 20.3879H0L20.2109 1.70249C21.9331 0.110256 24.4097 -0.413046 26.6729 0.336322C28.9356 1.08615 30.5432 2.96306 30.8678 5.23396L34.0967 27.7996C34.1934 28.4737 34.6537 29.0049 35.3277 29.2193C36.0017 29.4347 36.703 29.2728 37.2026 28.7895L45.8686 20.3879H35.9434L35.6115 18.3346H51L38.7291 30.2315C37.967 30.9707 36.9557 31.3651 35.9148 31.3651C35.4935 31.3651 35.0667 31.2999 34.6502 31.1674C33.2049 30.7074 32.1785 29.5235 31.9715 28.0783L28.7427 5.51305C28.525 3.9892 27.4888 2.77979 25.9707 2.27696C24.4529 1.77319 22.857 2.11136 21.7008 3.17936L5.30785 18.3346H27.6765L27.9783 20.3879ZM45.2182 9.68624H43.2719V0.0249398H45.2182L48.9097 6.36038H48.9384V0.0249398H50.8993V9.68624H48.9816L45.2474 3.35081H45.2182V9.68624Z" fill="#858585"/>
</svg>
