<svg width="57" height="36" viewBox="0 0 57 36" fill="none" xmlns="http://www.w3.org/2000/svg">
<path fill-rule="evenodd" clip-rule="evenodd" d="M31.2698 22.9363H0L22.5886 1.9153C24.5135 0.124037 27.2814 -0.464677 29.8109 0.378362C32.3398 1.22192 34.1366 3.33344 34.4993 5.88821L38.1081 31.2746C38.2162 32.0329 38.7306 32.6305 39.4839 32.8717C40.2372 33.114 41.021 32.9319 41.5794 32.3882L51.2649 22.9363H40.172L39.8011 20.6264H57L43.2854 34.0104C42.4337 34.842 41.3035 35.2857 40.14 35.2857C39.6691 35.2857 39.1922 35.2124 38.7267 35.0634C37.1114 34.5458 35.9642 33.214 35.7328 31.5881L32.1242 6.20218C31.8808 4.48785 30.7228 3.12726 29.0261 2.56158C27.3298 1.99484 25.5461 2.37528 24.2539 3.57678L5.9323 20.6264H30.9325L31.2698 22.9363ZM50.538 10.897H48.3627V0.0280573H50.538L54.6637 7.15543H54.6958V0.0280573H56.8875V10.897H54.7442L50.5706 3.76966H50.538V10.897Z" fill="white"/>
</svg>
